<svg width="15" height="19" viewBox="0 0 15 19" fill="none" xmlns="http://www.w3.org/2000/svg">
<path d="M12.75 9.75C13.3467 9.75 13.919 9.98705 14.341 10.409C14.7629 10.831 15 11.4033 15 12V12.75C15 15.7065 12.21 18.75 7.5 18.75C2.79 18.75 0 15.7065 0 12.75V12C0 11.4033 0.237053 10.831 0.65901 10.409C1.08097 9.98705 1.65326 9.75 2.25 9.75H12.75ZM12.75 11.25H2.25C2.05109 11.25 1.86032 11.329 1.71967 11.4697C1.57902 11.6103 1.5 11.8011 1.5 12V12.75C1.5 14.907 3.648 17.25 7.5 17.25C11.352 17.25 13.5 14.907 13.5 12.75V12C13.5 11.8011 13.421 11.6103 13.2803 11.4697C13.1397 11.329 12.9489 11.25 12.75 11.25ZM7.5 0C8.59402 0 9.64323 0.434597 10.4168 1.20818C11.1904 1.98177 11.625 3.03098 11.625 4.125C11.625 5.21902 11.1904 6.26823 10.4168 7.04182C9.64323 7.8154 8.59402 8.25 7.5 8.25C6.40598 8.25 5.35677 7.8154 4.58318 7.04182C3.8096 6.26823 3.375 5.21902 3.375 4.125C3.375 3.03098 3.8096 1.98177 4.58318 1.20818C5.35677 0.434597 6.40598 0 7.5 0ZM7.5 1.5C6.80381 1.5 6.13613 1.77656 5.64384 2.26884C5.15156 2.76113 4.875 3.42881 4.875 4.125C4.875 4.82119 5.15156 5.48887 5.64384 5.98116C6.13613 6.47344 6.80381 6.75 7.5 6.75C8.19619 6.75 8.86387 6.47344 9.35616 5.98116C9.84844 5.48887 10.125 4.82119 10.125 4.125C10.125 3.42881 9.84844 2.76113 9.35616 2.26884C8.86387 1.77656 8.19619 1.5 7.5 1.5Z" fill="#4D4F52"/>
</svg>
