<svg width="21" height="23" viewBox="0 0 21 23" fill="none" xmlns="http://www.w3.org/2000/svg">
<path d="M7.04717 19.8353H13.9498C13.8119 20.6508 13.3896 21.3912 12.7579 21.9251C12.1261 22.459 11.3257 22.7519 10.4985 22.7519C9.67136 22.7519 8.87093 22.459 8.23915 21.9251C7.60738 21.3912 7.1851 20.6508 7.04717 19.8353ZM10.4985 0C12.8194 0 15.0452 0.921962 16.6863 2.56306C18.3274 4.20417 19.2494 6.42998 19.2494 8.75085V13.418L20.9039 17.105C20.9791 17.2736 21.011 17.4584 20.9967 17.6425C20.9823 17.8266 20.9223 18.0042 20.8219 18.1591C20.7215 18.3141 20.584 18.4416 20.4219 18.5299C20.2597 18.6182 20.0781 18.6647 19.8934 18.665H1.10826C0.923364 18.665 0.741412 18.6187 0.578972 18.5303C0.416532 18.442 0.278766 18.3145 0.178219 18.1593C0.0776725 18.0041 0.0175389 17.8263 0.0032945 17.6419C-0.0109499 17.4576 0.0211474 17.2726 0.0966635 17.1038L1.74766 13.4168V8.73568L1.75349 8.44399C1.83331 6.17793 2.78959 4.03132 4.42087 2.45641C6.05214 0.881505 8.23105 0.00127316 10.4985 0.0011667V0Z" fill="#DCDDE1"/>
</svg>
