<svg width="19" height="18" viewBox="0 0 19 18" fill="none" xmlns="http://www.w3.org/2000/svg">
<path d="M13.25 3C13.0511 3 12.8603 3.07902 12.7197 3.21967C12.579 3.36032 12.5 3.55109 12.5 3.75C12.5 3.94891 12.579 4.13968 12.7197 4.28033C12.8603 4.42098 13.0511 4.5 13.25 4.5C13.964 4.5 14.5 5.036 14.5 5.75C14.5 5.94891 14.579 6.13968 14.7197 6.28033C14.8603 6.42098 15.0511 6.5 15.25 6.5C15.4489 6.5 15.6397 6.42098 15.7803 6.28033C15.921 6.13968 16 5.94891 16 5.75C16.004 5.38775 15.9356 5.02835 15.7989 4.69289C15.6621 4.35743 15.4597 4.05267 15.2035 3.7965C14.9473 3.54034 14.6426 3.33792 14.3071 3.20115C13.9717 3.06437 13.6123 2.99598 13.25 3ZM5.25 0C4.144 0 2.855 0.552 1.855 1.387C0.849 2.227 0 3.468 0 4.948V4.966C0 5.681 0 7.27 1.214 8.711C1.342 8.863 1.42 8.96 1.476 9.057C1.793 9.609 1.997 10.222 2 10.754C2.01 12.654 2.353 14.28 2.96 15.461C3.561 16.629 4.51 17.5 5.75 17.5C6.117 17.5 6.468 17.414 6.771 17.208C7.071 17.004 7.265 16.724 7.391 16.439C7.627 15.909 7.684 15.228 7.721 14.613C7.731 14.458 7.74 14.303 7.748 14.145C7.813 12.943 7.88 11.69 8.424 10.58C8.607 10.205 8.936 10 9.25 10H9.75C10.057 10 10.377 10.196 10.563 10.553C10.956 11.589 11.075 12.74 11.19 13.849C11.218 14.119 11.245 14.385 11.277 14.647C11.352 15.277 11.455 15.937 11.695 16.449C11.82 16.717 12.001 16.987 12.275 17.189C12.559 17.399 12.892 17.5 13.25 17.5C14.36 17.5 15.301 16.598 15.917 15.48C16.563 14.307 16.989 12.68 17 10.754C17.003 10.161 17.257 9.471 17.627 8.886C18.997 7.254 19 5.726 19 4.948C19 3.468 18.151 2.227 17.145 1.387C16.145 0.552 14.856 0 13.75 0C12.881 0 12.199 0.138 11.643 0.37C11.1743 0.567575 10.7482 0.853817 10.388 1.213C10.256 1.343 10.138 1.471 10.041 1.577L10.011 1.61C9.901 1.73 9.824 1.812 9.751 1.877C9.627 1.987 9.571 2 9.5 2C9.429 2 9.373 1.987 9.25 1.877C9.15871 1.7923 9.0716 1.70319 8.989 1.61L8.959 1.577C8.861 1.471 8.744 1.342 8.612 1.213C8.25219 0.853645 7.82595 0.567673 7.357 0.371C6.801 0.138 6.12 0 5.25 0ZM1.5 4.948C1.5 4.064 2.015 3.207 2.816 2.538C3.623 1.865 4.584 1.5 5.25 1.5C5.958 1.5 6.438 1.612 6.779 1.754C7.116 1.895 7.354 2.082 7.564 2.287C7.664 2.385 7.754 2.483 7.854 2.593L7.884 2.624C7.989 2.739 8.114 2.875 8.253 2.998C8.55 3.263 8.945 3.5 9.5 3.5C10.055 3.5 10.45 3.263 10.747 2.998C10.885 2.875 11.011 2.739 11.117 2.624L11.145 2.593C11.245 2.483 11.336 2.385 11.436 2.287C11.6601 2.05948 11.9269 1.87836 12.221 1.754C12.562 1.612 13.042 1.5 13.75 1.5C14.416 1.5 15.377 1.865 16.184 2.538C16.984 3.207 17.5 4.064 17.5 4.948V4.952C17.5 5.632 17.5 6.724 16.451 7.953C16.4296 7.97834 16.4099 8.00506 16.392 8.033C15.912 8.776 15.505 9.761 15.5 10.746C15.49 12.466 15.108 13.84 14.603 14.756C14.07 15.726 13.52 16 13.25 16C13.187 16 13.171 15.987 13.168 15.984C13.1171 15.9369 13.0778 15.8787 13.053 15.814C12.929 15.547 12.843 15.112 12.766 14.469C12.741 14.256 12.716 14.024 12.692 13.777C12.577 12.651 12.433 11.232 11.95 9.98C11.9422 9.95964 11.9335 9.93963 11.924 9.92C11.535 9.127 10.736 8.5 9.75 8.5H9.25C8.264 8.5 7.465 9.127 7.076 9.92C6.387 11.327 6.308 12.907 6.248 14.081L6.225 14.523C6.185 15.177 6.129 15.587 6.02 15.83C5.975 15.933 5.939 15.96 5.929 15.967C5.922 15.972 5.88 16 5.75 16C5.309 16 4.768 15.695 4.294 14.774C3.827 13.867 3.51 12.493 3.5 10.746C3.495 9.874 3.176 9.006 2.777 8.31C2.65834 8.11311 2.52212 7.92735 2.37 7.755L2.36 7.745C1.51 6.734 1.5 5.624 1.5 4.947V4.948Z" fill="#4D4F52"/>
</svg>
