<svg width="18" height="19" viewBox="0 0 18 19" fill="none" xmlns="http://www.w3.org/2000/svg">
<path d="M6 2.25C6 1.65326 6.23705 1.08097 6.65901 0.65901C7.08097 0.237053 7.65326 0 8.25 0H9.75C10.3467 0 10.919 0.237053 11.341 0.65901C11.7629 1.08097 12 1.65326 12 2.25V18.02H6V2.25ZM4.5 7.02H2.25C1.65326 7.02 1.08097 7.25705 0.65901 7.67901C0.237053 8.10097 0 8.67326 0 9.27V17.27C0 17.685 0.336 18.02 0.75 18.02H4.5V7.02ZM13.5 18.02H17.25C17.4489 18.02 17.6397 17.941 17.7803 17.8003C17.921 17.6597 18 17.4689 18 17.27V6.27C18 5.67326 17.7629 5.10097 17.341 4.67901C16.919 4.25705 16.3467 4.02 15.75 4.02H13.5V18.02Z" fill="#00C7FF"/>
</svg>
