<svg width="10" height="20" viewBox="0 0 10 20" fill="none" xmlns="http://www.w3.org/2000/svg">
<path d="M8.125 0C8.62228 0 9.09919 0.237053 9.45082 0.65901C9.80246 1.08097 10 1.65326 10 2.25V17.75C10 18.3467 9.80246 18.919 9.45082 19.341C9.09919 19.7629 8.62228 20 8.125 20H1.875C1.37772 20 0.900806 19.7629 0.549175 19.341C0.197544 18.919 0 18.3467 0 17.75V2.25C0 1.65326 0.197544 1.08097 0.549175 0.65901C0.900806 0.237053 1.37772 0 1.875 0H8.125ZM8.125 1.5H1.875C1.70924 1.5 1.55027 1.57902 1.43306 1.71967C1.31585 1.86032 1.25 2.05109 1.25 2.25V17.75C1.25 18.164 1.53 18.5 1.875 18.5H8.125C8.29076 18.5 8.44973 18.421 8.56694 18.2803C8.68415 18.1397 8.75 17.9489 8.75 17.75V2.25C8.75 2.05109 8.68415 1.86032 8.56694 1.71967C8.44973 1.57902 8.29076 1.5 8.125 1.5ZM7.3125 11.464C7.41947 11.5899 7.48522 11.7576 7.49776 11.9368C7.51031 12.1159 7.46881 12.2945 7.38083 12.44L7.32167 12.525L5.44667 14.821C5.34043 14.9511 5.19838 15.0303 5.04703 15.0439C4.89568 15.0575 4.74538 15.0046 4.62417 14.895L4.55417 14.821L2.67667 12.525C2.56623 12.3899 2.50244 12.2097 2.4981 12.0205C2.49375 11.8313 2.54916 11.6472 2.65322 11.5049C2.75728 11.3627 2.9023 11.273 3.05919 11.2537C3.21608 11.2344 3.37325 11.2871 3.49917 11.401L3.56833 11.475L5 13.225L6.42833 11.475C6.48583 11.4046 6.55431 11.3486 6.62987 11.31C6.70543 11.2714 6.78658 11.2511 6.86869 11.2501C6.9508 11.2492 7.03226 11.2677 7.10841 11.3046C7.18456 11.3414 7.25391 11.396 7.3125 11.465V11.464ZM5.44583 5.225L7.32083 7.521C7.38157 7.59039 7.43005 7.67374 7.46339 7.76609C7.49672 7.85844 7.51423 7.95789 7.51486 8.05852C7.5155 8.15916 7.49925 8.25891 7.46708 8.35186C7.43492 8.4448 7.38749 8.52902 7.32763 8.59951C7.26778 8.66999 7.19671 8.7253 7.11866 8.76214C7.04062 8.79898 6.9572 8.8166 6.87336 8.81394C6.78953 8.81128 6.70699 8.7884 6.63068 8.74666C6.55437 8.70492 6.48584 8.64518 6.42917 8.571L5 6.82L3.56833 8.57C3.45094 8.70411 3.29473 8.77825 3.13265 8.77678C2.97057 8.77531 2.81531 8.69834 2.69963 8.56211C2.58394 8.42589 2.51688 8.24106 2.5126 8.04663C2.50831 7.8522 2.56714 7.66337 2.67667 7.52L4.55417 5.224C4.61234 5.15295 4.68172 5.09651 4.75827 5.05799C4.83482 5.01946 4.91699 4.99962 5 4.99962C5.08301 4.99962 5.16518 5.01946 5.24173 5.05799C5.31827 5.09651 5.38766 5.15395 5.44583 5.225Z" fill="#4D4F52" fill-opacity="0.8"/>
</svg>
