<svg width="18" height="18" viewBox="0 0 18 18" fill="none" xmlns="http://www.w3.org/2000/svg">
<path d="M9.96429 12.8571C9.96429 13.1129 9.86269 13.3582 9.68185 13.539C9.50101 13.7198 9.25574 13.8214 9 13.8214C8.74426 13.8214 8.49899 13.7198 8.31815 13.539C8.13731 13.3582 8.03571 13.1129 8.03571 12.8571C8.03571 12.6014 8.13731 12.3561 8.31815 12.1753C8.49899 11.9945 8.74426 11.8929 9 11.8929C9.25574 11.8929 9.50101 11.9945 9.68185 12.1753C9.86269 12.3561 9.96429 12.6014 9.96429 12.8571ZM7.71429 6.42857C7.71429 6.08336 7.83 5.75936 8.03379 5.52986C8.22729 5.31193 8.53136 5.14286 9 5.14286C9.84086 5.14286 10.5313 6.00943 10.305 6.91586C10.1893 7.38 9.91286 7.6455 9.49693 8.04471L9.3825 8.154C8.91386 8.60786 8.35714 9.21086 8.35714 10.2857C8.35714 10.4562 8.42487 10.6197 8.54543 10.7403C8.66599 10.8608 8.8295 10.9286 9 10.9286C9.1705 10.9286 9.33401 10.8608 9.45457 10.7403C9.57513 10.6197 9.64286 10.4562 9.64286 10.2857C9.64286 9.75407 9.86979 9.47121 10.2761 9.07907L10.3989 8.96207C10.7936 8.58921 11.3413 8.07171 11.5521 7.22764C11.9687 5.56264 10.7306 3.85714 9 3.85714C8.18293 3.85714 7.52271 4.17021 7.07336 4.6755C6.63429 5.16921 6.42857 5.8095 6.42857 6.42857C6.42857 6.59907 6.4963 6.76258 6.61686 6.88314C6.73742 7.0037 6.90093 7.07143 7.07143 7.07143C7.24193 7.07143 7.40544 7.0037 7.526 6.88314C7.64656 6.76258 7.71429 6.59907 7.71429 6.42857ZM0 9C0 4.02943 4.02943 0 9 0C13.9706 0 18 4.02943 18 9C18 13.9706 13.9706 18 9 18C4.02943 18 0 13.9706 0 9ZM9 1.28571C4.73979 1.28571 1.28571 4.73979 1.28571 9C1.28571 13.2602 4.73979 16.7143 9 16.7143C13.2602 16.7143 16.7143 13.2602 16.7143 9C16.7143 4.73979 13.2602 1.28571 9 1.28571Z" fill="#4D4F52" fill-opacity="0.8"/>
</svg>
