<svg width="17" height="18" viewBox="0 0 17 18" fill="none" xmlns="http://www.w3.org/2000/svg">
<path d="M8.50032 5.69996C7.66131 5.69996 6.85667 6.03325 6.2634 6.62652C5.67013 7.21979 5.33684 8.02443 5.33684 8.86344C5.33684 9.70245 5.67013 10.5071 6.2634 11.1004C6.85667 11.6936 7.66131 12.0269 8.50032 12.0269C9.33932 12.0269 10.144 11.6936 10.7372 11.1004C11.3305 10.5071 11.6638 9.70245 11.6638 8.86344C11.6638 8.02443 11.3305 7.21979 10.7372 6.62652C10.144 6.03325 9.33932 5.69996 8.50032 5.69996ZM6.60223 8.86344C6.60223 8.36003 6.8022 7.87725 7.15817 7.52129C7.51413 7.16533 7.99691 6.96535 8.50032 6.96535C9.00372 6.96535 9.48651 7.16533 9.84247 7.52129C10.1984 7.87725 10.3984 8.36003 10.3984 8.86344C10.3984 9.36684 10.1984 9.84963 9.84247 10.2056C9.48651 10.5616 9.00372 10.7615 8.50032 10.7615C7.99691 10.7615 7.51413 10.5616 7.15817 10.2056C6.8022 9.84963 6.60223 9.36684 6.60223 8.86344ZM6.501 17.4858C7.15584 17.6421 7.82713 17.7212 8.50032 17.7212C9.17288 17.7202 9.84303 17.6405 10.4971 17.4839C10.685 17.4396 10.8547 17.3383 10.9827 17.1937C11.1107 17.0492 11.1908 16.8685 11.2121 16.6766L11.3601 15.329C11.3744 15.1819 11.4234 15.0404 11.5032 14.9162C11.583 14.7919 11.6913 14.6883 11.819 14.6142C11.9467 14.54 12.0903 14.4973 12.2378 14.4895C12.3853 14.4818 12.5325 14.5093 12.6673 14.5697L13.9042 15.1113C14.0812 15.1892 14.2782 15.2101 14.4676 15.171C14.6571 15.1319 14.8297 15.0347 14.9614 14.893C15.8754 13.9083 16.5576 12.7317 16.9582 11.4493C17.0156 11.2638 17.0139 11.065 16.9533 10.8805C16.8926 10.6961 16.776 10.5351 16.6197 10.4199L15.5258 9.61318C15.4063 9.52611 15.3091 9.412 15.2422 9.28018C15.1752 9.14836 15.1404 9.00257 15.1406 8.85473C15.1408 8.70689 15.176 8.56118 15.2432 8.42953C15.3105 8.29788 15.408 8.18402 15.5277 8.09724L16.6159 7.29372C16.7731 7.17881 16.8904 7.01757 16.9514 6.83262C17.0123 6.64767 17.0138 6.44828 16.9557 6.26243C16.5558 4.97957 15.8732 3.80275 14.9582 2.81866C14.826 2.67722 14.6531 2.58027 14.4634 2.54118C14.2737 2.50209 14.0766 2.52277 13.8991 2.60038L12.6679 3.14197C12.5329 3.20079 12.386 3.22704 12.2391 3.21859C12.0921 3.21013 11.9492 3.16721 11.8219 3.0933C11.6945 3.01939 11.5864 2.91656 11.5062 2.79312C11.426 2.66968 11.3759 2.52909 11.3601 2.38273L11.2108 1.04142C11.1899 0.847216 11.1087 0.664448 10.9785 0.518833C10.8483 0.373218 10.6757 0.272087 10.4851 0.229669C9.83539 0.0844954 9.17232 0.00752227 8.50664 0C7.83703 0.00792895 7.17001 0.0848923 6.51618 0.229669C6.3255 0.271361 6.15279 0.372026 6.02253 0.517387C5.89227 0.662747 5.81109 0.845427 5.79048 1.03952L5.64053 2.3821C5.62415 2.52868 5.57367 2.66939 5.49314 2.79296C5.41261 2.91653 5.30426 3.01952 5.17677 3.09369C5.04928 3.16786 4.90619 3.21114 4.75897 3.22008C4.61174 3.22901 4.46447 3.20334 4.32895 3.14513L3.09772 2.60291C2.92008 2.52746 2.72358 2.50823 2.53467 2.54782C2.34577 2.58741 2.17352 2.68392 2.04112 2.82436C1.12601 3.8094 0.442888 4.98671 0.0418024 6.27002C-0.0152832 6.4554 -0.0133092 6.65394 0.0474512 6.83815C0.108212 7.02236 0.224751 7.18311 0.380928 7.29815L1.47233 8.10294C1.59122 8.19042 1.68787 8.30463 1.75449 8.43636C1.8211 8.56808 1.85581 8.71362 1.85581 8.86122C1.85581 9.00883 1.8211 9.15437 1.75449 9.28609C1.68787 9.41782 1.59122 9.53203 1.47233 9.61951L0.380928 10.4262C0.22416 10.5415 0.107283 10.7028 0.0466027 10.8877C-0.0140778 11.0725 -0.0155348 11.2717 0.0424351 11.4575C0.443335 12.7416 1.12646 13.9198 2.04175 14.9057C2.12877 14.9992 2.23427 15.0737 2.35157 15.1243C2.46887 15.175 2.59541 15.2007 2.72317 15.1999C2.85161 15.1999 2.97878 15.1733 3.09709 15.1221L4.33401 14.5786C4.46892 14.5203 4.61563 14.4945 4.76234 14.5032C4.90905 14.5119 5.05167 14.5549 5.17874 14.6287C5.3058 14.7026 5.41378 14.8052 5.49398 14.9283C5.57418 15.0515 5.62438 15.1917 5.64053 15.3378L5.78921 16.6829C5.81081 16.8738 5.89074 17.0534 6.01812 17.1972C6.14549 17.341 6.31412 17.442 6.501 17.4865V17.4858ZM9.98146 16.3052C9.00525 16.5055 7.99855 16.5055 7.02234 16.3052L6.89896 15.2043C6.83865 14.6658 6.58184 14.1684 6.17769 13.8073C5.86126 13.5287 5.47251 13.3452 5.05629 13.2781C4.64006 13.2109 4.21333 13.2628 3.82532 13.4277L2.80922 13.8706C2.15374 13.12 1.64932 12.25 1.32364 11.3082L2.2246 10.6426C2.50295 10.4375 2.72921 10.1698 2.88515 9.86124C3.04108 9.55264 3.12232 9.21173 3.12232 8.86597C3.12232 8.52021 3.04108 8.1793 2.88515 7.8707C2.72921 7.56211 2.50295 7.29447 2.2246 7.08936L1.32554 6.42566C1.6516 5.48481 2.15599 4.61565 2.81111 3.86577L3.82343 4.30866C4.10245 4.43187 4.40419 4.49524 4.7092 4.49467C5.25236 4.49297 5.77595 4.2917 6.1804 3.92913C6.58484 3.56657 6.84193 3.068 6.90276 2.52825L7.0255 1.42293C7.51521 1.32803 8.01251 1.27741 8.51044 1.27109C9.00521 1.27741 9.49871 1.32803 9.98462 1.42293L10.1023 2.52382C10.1609 3.06392 10.4171 3.56328 10.8217 3.92588C11.1383 4.20621 11.5281 4.39074 11.9456 4.45795C12.3631 4.52516 12.7911 4.47229 13.1797 4.3055L14.1921 3.86261C14.8481 4.61228 15.353 5.48175 15.6789 6.42313L14.7786 7.08493C14.4988 7.28933 14.2712 7.55687 14.1143 7.86579C13.9574 8.17472 13.8756 8.51632 13.8756 8.86281C13.8756 9.20929 13.9574 9.55089 14.1143 9.85982C14.2712 10.1687 14.4988 10.4363 14.7786 10.6407L15.6783 11.305C15.352 12.2446 14.8484 13.1128 14.1946 13.8624L13.1823 13.4195C12.8655 13.2785 12.5198 13.2145 12.1736 13.2327C11.8273 13.2509 11.4903 13.3508 11.19 13.5242C10.8898 13.6976 10.6348 13.9396 10.446 14.2304C10.2571 14.5212 10.1398 14.8525 10.1036 15.1974L9.98146 16.3046V16.3052Z" fill="#4D4F52" fill-opacity="0.8"/>
</svg>
