<svg width="15" height="18" viewBox="0 0 15 18" fill="none" xmlns="http://www.w3.org/2000/svg">
<path d="M11.875 4.375C11.875 5.53532 11.4141 6.64812 10.5936 7.46859C9.77312 8.28906 8.66032 8.75 7.5 8.75C6.33968 8.75 5.22688 8.28906 4.40641 7.46859C3.58594 6.64812 3.125 5.53532 3.125 4.375C3.125 3.21468 3.58594 2.10188 4.40641 1.28141C5.22688 0.460936 6.33968 0 7.5 0C8.66032 0 9.77312 0.460936 10.5936 1.28141C11.4141 2.10188 11.875 3.21468 11.875 4.375ZM10.625 4.375C10.625 3.5462 10.2958 2.75134 9.70971 2.16529C9.12366 1.57924 8.3288 1.25 7.5 1.25C6.6712 1.25 5.87634 1.57924 5.29029 2.16529C4.70424 2.75134 4.375 3.5462 4.375 4.375C4.375 5.2038 4.70424 5.99866 5.29029 6.58471C5.87634 7.17076 6.6712 7.5 7.5 7.5C8.3288 7.5 9.12366 7.17076 9.70971 6.58471C10.2958 5.99866 10.625 5.2038 10.625 4.375ZM2.1875 10C1.60734 10 1.05094 10.2305 0.640704 10.6407C0.230468 11.0509 0 11.6073 0 12.1875V12.5C0 13.9956 0.951875 15.2606 2.30312 16.1206C3.66188 16.9856 5.50125 17.5 7.5 17.5C9.49875 17.5 11.3375 16.9856 12.6969 16.1206C14.0481 15.2606 15 13.9956 15 12.5V12.1875C15 11.6073 14.7695 11.0509 14.3593 10.6407C13.9491 10.2305 13.3927 10 12.8125 10H2.1875ZM1.25 12.1875C1.25 11.9389 1.34877 11.7004 1.52459 11.5246C1.7004 11.3488 1.93886 11.25 2.1875 11.25H12.8125C13.0611 11.25 13.2996 11.3488 13.4754 11.5246C13.6512 11.7004 13.75 11.9389 13.75 12.1875V12.5C13.75 13.4206 13.1625 14.3431 12.0256 15.0663C10.8962 15.785 9.29813 16.25 7.5 16.25C5.70187 16.25 4.10375 15.785 2.97437 15.0663C1.83687 14.3438 1.25 13.42 1.25 12.5V12.1875Z" fill="#4D4F52" fill-opacity="0.8"/>
</svg>
