<svg width="18" height="18" viewBox="0 0 18 18" fill="none" xmlns="http://www.w3.org/2000/svg">
<path d="M12.6688 5.33121C12.7893 5.45177 12.857 5.61525 12.857 5.78571C12.857 5.95618 12.7893 6.11966 12.6688 6.24021L9.909 9L12.6688 11.7598C12.7859 11.881 12.8507 12.0434 12.8492 12.212C12.8478 12.3805 12.7801 12.5418 12.661 12.661C12.5418 12.7801 12.3805 12.8478 12.212 12.8492C12.0434 12.8507 11.881 12.7859 11.7598 12.6688L9 9.909L6.24021 12.6688C6.11897 12.7859 5.95658 12.8507 5.78803 12.8492C5.61947 12.8478 5.45824 12.7801 5.33905 12.661C5.21985 12.5418 5.15225 12.3805 5.15078 12.212C5.14932 12.0434 5.21411 11.881 5.33121 11.7598L8.091 9L5.33121 6.24021C5.26981 6.18091 5.22084 6.10998 5.18715 6.03155C5.15346 5.95311 5.13572 5.86876 5.13498 5.7834C5.13424 5.69804 5.15051 5.61339 5.18283 5.53439C5.21515 5.45538 5.26289 5.38361 5.32325 5.32325C5.38361 5.26289 5.45538 5.21515 5.53439 5.18283C5.61339 5.15051 5.69804 5.13424 5.7834 5.13498C5.86876 5.13572 5.95311 5.15346 6.03155 5.18715C6.10998 5.22084 6.18091 5.26981 6.24021 5.33121L9 8.091L11.7598 5.33121C11.8803 5.2107 12.0438 5.14299 12.2143 5.14299C12.3847 5.14299 12.5482 5.2107 12.6688 5.33121ZM9 0C4.02943 0 0 4.02943 0 9C0 13.9706 4.02943 18 9 18C13.9706 18 18 13.9706 18 9C18 4.02943 13.9706 0 9 0ZM1.28571 9C1.28571 4.73979 4.73979 1.28571 9 1.28571C13.2602 1.28571 16.7143 4.73979 16.7143 9C16.7143 13.2602 13.2602 16.7143 9 16.7143C4.73979 16.7143 1.28571 13.2602 1.28571 9Z" fill="#4D4F52" fill-opacity="0.8"/>
</svg>
