<svg width="15" height="18" viewBox="0 0 15 18" fill="none" xmlns="http://www.w3.org/2000/svg">
<path d="M15 2.48087C15 2.10055 14.9394 1.72532 14.8229 1.38418C14.7064 1.04304 14.5372 0.74512 14.3282 0.513442C14.1192 0.281764 13.8761 0.12253 13.6177 0.0480451C13.3593 -0.0264402 13.0925 -0.0141826 12.8379 0.0838705L1.27641 4.53414C0.910392 4.67489 0.586834 4.98618 0.356015 5.41964C0.125195 5.8531 4.11338e-05 6.38445 0 6.93114V10.0228C4.11338e-05 10.5695 0.125195 11.1008 0.356015 11.5343C0.586834 11.9677 0.910392 12.279 1.27641 12.4198L3.12289 13.1307V13.4392C3.12271 14.36 3.33942 15.2535 3.73746 15.9731C4.1355 16.6927 4.69122 17.1957 5.31341 17.3994C5.93559 17.6031 6.58728 17.4955 7.16152 17.0943C7.73575 16.693 8.19841 16.0219 8.47356 15.1912L12.8379 16.871C13.0925 16.969 13.3593 16.9813 13.6177 16.9068C13.8761 16.8323 14.1192 16.6731 14.3282 16.4414C14.5372 16.2097 14.7064 15.9118 14.8229 15.5706C14.9394 15.2295 15 14.8543 15 14.474V2.47996V2.48087ZM13.0798 1.39108C13.1955 1.34671 13.3167 1.3413 13.434 1.37527C13.5514 1.40924 13.6618 1.48167 13.7567 1.58699C13.8516 1.6923 13.9284 1.82767 13.9813 1.98266C14.0342 2.13764 14.0618 2.3081 14.0618 2.48087V14.474C14.0617 14.6467 14.0341 14.8172 13.9811 14.9722C13.9281 15.1271 13.8512 15.2624 13.7563 15.3677C13.6613 15.4729 13.5508 15.5452 13.4334 15.5791C13.316 15.6129 13.1948 15.6074 13.0791 15.5628L1.51769 11.1126C1.35131 11.0486 1.20424 10.907 1.09934 10.7099C0.994446 10.5129 0.937592 10.2713 0.937617 10.0228V6.93114C0.937617 6.42052 1.17577 5.97306 1.51769 5.84225L13.0804 1.39017L13.0798 1.39108ZM7.54344 14.833C7.33404 15.3368 7.01675 15.7285 6.63948 15.9491C6.26222 16.1697 5.84548 16.2071 5.45218 16.0557C5.05888 15.9043 4.7104 15.5724 4.45934 15.1099C4.20828 14.6475 4.06829 14.0798 4.06051 13.4924L7.54344 14.833Z" fill="#4D4F52" fill-opacity="0.8"/>
</svg>
