<svg width="19" height="18" viewBox="0 0 19 18" fill="none" xmlns="http://www.w3.org/2000/svg">
<path d="M1.855 1.387C2.855 0.552 4.144 0 5.25 0C6.119 0 6.801 0.138 7.357 0.37C7.917 0.605 8.309 0.918 8.612 1.213C8.744 1.343 8.862 1.471 8.959 1.577L8.989 1.61C9.099 1.73 9.176 1.812 9.249 1.877C9.373 1.987 9.429 2 9.5 2C9.571 2 9.627 1.987 9.75 1.877C9.824 1.812 9.902 1.73 10.011 1.61L10.041 1.577C10.139 1.471 10.256 1.342 10.388 1.213C10.7478 0.853645 11.174 0.567673 11.643 0.371C12.199 0.138 12.88 0 13.75 0C14.856 0 16.145 0.552 17.145 1.387C18.151 2.227 19 3.468 19 4.948C19 5.726 18.998 7.254 17.627 8.886C17.257 9.471 17.003 10.161 17 10.754C16.99 12.68 16.563 14.307 15.917 15.479C15.301 16.599 14.361 17.5 13.25 17.5C12.892 17.5 12.559 17.4 12.274 17.19C12.022 16.9956 11.8226 16.7412 11.694 16.45C11.455 15.938 11.351 15.276 11.276 14.647C11.2453 14.3812 11.2166 14.1152 11.19 13.849C11.075 12.74 10.956 11.589 10.563 10.553C10.377 10.196 10.057 10 9.75 10H9.25C8.936 10 8.607 10.205 8.424 10.58C7.88 11.69 7.813 12.943 7.748 14.145L7.722 14.613C7.685 15.228 7.627 15.909 7.392 16.439C7.26202 16.7487 7.04708 17.0153 6.772 17.208C6.46889 17.4069 6.11241 17.5087 5.75 17.5C4.51 17.5 3.561 16.629 2.96 15.46C2.353 14.28 2.01 12.654 2 10.754C1.997 10.222 1.793 9.609 1.476 9.057C1.39882 8.93432 1.31116 8.81855 1.214 8.711C0 7.27 0 5.68 0 4.966V4.948C0 3.468 0.849 2.227 1.855 1.387ZM13.25 3C13.0511 3 12.8603 3.07902 12.7197 3.21967C12.579 3.36032 12.5 3.55109 12.5 3.75C12.5 3.94891 12.579 4.13968 12.7197 4.28033C12.8603 4.42098 13.0511 4.5 13.25 4.5C13.964 4.5 14.5 5.036 14.5 5.75C14.5 5.94891 14.579 6.13968 14.7197 6.28033C14.8603 6.42098 15.0511 6.5 15.25 6.5C15.4489 6.5 15.6397 6.42098 15.7803 6.28033C15.921 6.13968 16 5.94891 16 5.75C16.004 5.38775 15.9356 5.02835 15.7989 4.69289C15.6621 4.35743 15.4597 4.05267 15.2035 3.7965C14.9473 3.54034 14.6426 3.33792 14.3071 3.20115C13.9717 3.06437 13.6123 2.99598 13.25 3Z" fill="#00C7FF"/>
</svg>
